<svg version="1.0" xmlns="http://www.w3.org/2000/svg" width="1365.333" height="1365.333" viewBox="0 0 1024 1024"><path d="M503 163.6c-32.3 2.7-49.7 5.3-69.8 10.3-44.9 11.3-95.4 34.6-129.8 60.1-56.1 41.5-99.8 100.9-122.3 166.4-16.5 47.7-22.5 95.5-18.5 147.1 2.8 36.7 11.8 73.5 26.6 109 9.1 22 18.2 37 27.7 45.7 3.5 3.2 5.1 5.5 5.1 7.2 0 3.8 3.9 15.4 7.7 23.1 11.9 23.7 33.1 41.3 58.8 48.7 7.1 2 10 2.3 26 2.2 16.6 0 18.7-.3 26.8-2.7 9.7-3 21.8-8.8 28.8-13.9 6.8-4.8 13.9-11.7 93.4-90.2 88.8-87.7 119-117.3 128-125.9l7.1-6.6 4.9 1.5c36.9 11.4 80.6 6.7 110-11.9 39.5-24.9 62-63.4 64.2-109.8 1.2-23.6-5.1-51.4-16.8-75.2-2.4-4.8-2.4-4.9-3-2-.4 1.5-3.4 15-6.7 29.9-11.3 50.4-13.9 59-21.4 70.7-12.8 19.9-33.5 35.1-55.5 40.8-10.4 2.7-26.8 3.5-38.5 2-39-5.2-70.9-34-80.9-72.8-3.3-13-4.2-24.2-2.9-35.9 3.4-32.3 19-57.7 46.5-75.9 4.4-2.9 17.2-10.4 28.5-16.5 11.3-6.2 22.7-12.5 25.4-14l4.9-2.8-6.9-.7c-20.3-2.2-46 2.9-67.5 13.4-13.3 6.6-22.5 13-33.5 23.4-21.1 20-33.9 43.5-39.1 71.7-2.2 12.2-2.1 33 .2 46.5 3 18.2 11.8 41.1 20.1 52.8 1.9 2.6 3.4 4.9 3.4 5.2 0 .2-2 .2-4.3-.1l-4.4-.6-19.9 19.4c-10.9 10.7-39.5 38-63.4 60.8-23.9 22.7-48.7 46.3-55 52.4-6.4 6.1-16.8 16.2-23.2 22.3L352.1 650l3.4 5.7c7.3 12.3 10.2 28 7.6 41.5-2.9 15.1-14.4 30.7-27.6 37.5-21.4 11.1-46.8 7.2-63.5-9.6-10.9-11-16-23.5-16-39.2 0-14.9 4.5-26 15.2-37.4 11.6-12.5 23.7-17.1 41.8-16.1 5.8.3 11.5.7 12.6.8 2.4.3 10-6.7 73.4-67.7 20.1-19.3 46.9-45 59.5-57 12.7-12.1 29.4-28.3 37.3-36l14.3-14-2-4.7c-12-28.1-12.1-74.2-.2-100.8 1.9-4.2 1.9-4.6.3-6.4-2.5-2.8-9.3-7.6-10.8-7.6-1.9 0-8.8 15-11.9 25.6-4.3 14.9-5.7 27.6-5.3 47.3.3 11.8 1.1 20.7 2.3 26.9l1.9 9.4-8.4 8.1c-4.7 4.5-14.8 14.2-22.5 21.7-7.8 7.4-27.3 26.3-43.5 42-51.3 49.6-85.3 82.5-90.7 87.4l-5.2 4.8-21.1.1c-16.6.2-20.7-.1-19.4-1 .9-.7 6.7-6.1 12.8-12 6.1-6 39-37.8 73.1-70.8 34.1-32.9 69.4-67.2 78.5-76.1l16.4-16.3.1-19.8c.3-30.2 5.1-51.1 18-77.8 14.3-29.5 35.7-55.1 62-74 15.4-11.1 39.1-21.9 59.4-27 17.4-4.4 45.3-5.7 63.3-3 21.1 3.2 52.5 16.4 71.7 30.2 11.5 8.3 28.9 24.8 37.7 35.7 20 24.8 33.7 53.3 40.7 84.5 1.8 8.3 2.1 12.7 2.2 33.6 0 26.8-1 33.8-8.2 56-18.9 58.7-70.6 102.6-131.9 112.1-8.1 1.2-16.9 1.6-34.2 1.5-25.6-.1-28.9.3-39.8 5.5-6.9 3.2-11.3 7.4-106.4 102.1-54.6 54.4-101.3 100.3-103.9 102.1-32.8 23.7-90.4 22.8-128.1-2-3.4-2.3-2-.5 6 7.4 12.1 12 24.8 20.9 39.3 27.8 19.9 9.5 34.2 13 53.1 13 11.5 0 12.9.2 18.8 2.8 18.1 8.1 46.4 16.9 70 21.6 74.3 15 148.2 7.1 216.8-23.1 11.7-5.2 15.8-7.2 32-16.1 32.4-17.7 63.7-42.9 89.4-72.2 45.6-51.9 77.2-123 87.1-196 2.2-16.6 3-50.2 1.6-71-2.9-42.2-14.6-87.8-32.5-126.4-2.4-5.2-4.9-11.8-5.5-14.6-4.8-22.2-22.6-54.5-43.4-78.5-30.7-35.5-73-62.6-113.2-72.5-4.9-1.2-14.3-4.4-20.7-7.1-30.2-12.7-64.9-21.6-98.9-25.4-13.8-1.5-45.6-2.6-53.9-1.9zm40.8 48.1 3.4.6-7.9 4.1c-8.7 4.7-19.2 12-29.8 20.6-7 5.7-7 5.8-15.5 6.5-10.3.8-33.4 4.8-45 7.6-17.8 4.5-39.3 12.5-56.9 21.4-29 14.5-48.1 28.3-72 51.8-40.4 39.8-64.4 85.3-75.9 144.2-3.6 18.1-4.5 30.9-3.9 57.2.5 25.1 1.5 34 5.8 52.6l2.1 8.7-6.5 7c-3.6 3.9-8.9 10.6-11.8 15-2.9 4.3-5.4 7.8-5.5 7.7-1-1.2-8.7-26.5-10.3-34-14.5-66.8-5.7-137.4 24.9-200.2 15.5-31.9 35.7-59.4 62.6-85.5 15.6-15.1 25.8-23.4 42.4-34.5 42.2-28.2 91.1-45.7 141-50.4 6.3-.6 13.3-1.3 15.5-1.5 5.3-.5 39.1.3 43.3 1.1zm282 322.5c-2.1 47.2-18.6 102.3-42.4 142-18.8 31.4-36 52.5-59.7 73.4-22.5 19.8-46.1 35.7-70.2 47.4-57.9 27.9-118.4 37.2-183.6 28-12.7-1.8-37.1-7.2-43.7-9.7-2-.8-1.1-1.9 11.7-13.5l13.9-12.7 12.8 2.4c19.6 3.6 37.1 4.8 60.3 4.2 32.5-.9 59.8-6.3 91.6-18.2 68.4-25.5 127-81.3 154.5-147.1 7.4-17.7 15.6-44.9 18.4-61.2l1.4-8.3 8.6-8.7c9.5-9.5 18.4-21.5 23.1-30.8 3.9-7.8 4.2-6.5 3.3 12.8z"/><path d="M656.5 293.2c-44.7 29.2-50.7 33.6-59.1 44.1-6.8 8.6-10.7 16.1-13.6 26.4-1.9 6.5-2.3 10.2-2.2 22.3 0 13.2.3 15.2 2.8 22.4 8.1 23.4 23.5 38.5 46.6 45.7 6.3 2 9.6 2.4 20 2.3 23-.1 39.6-7.4 54.6-23.7 9.5-10.4 12.7-16.8 21-42.7 4.2-12.9 8.6-26.8 10-30.8 1.7-5.5 2-7.3 1-6.9-1.5.6-26.2 18.3-48.6 34.7-8.8 6.5-14.4 10-16 9.9-1.4 0-7.9-1-14.5-2.2l-11.9-2.2-7.8-13c-4.3-7.2-8.1-13.9-8.4-15-.3-1.3 1.9-7 6.1-15.5 8.7-17.5 28.8-61 28.2-61-.1 0-3.8 2.4-8.2 5.2zM299.5 654.3c-9.7 3.2-17.1 10.3-20.6 19.7-3.1 8.2-2.4 20.5 1.6 27.8 13.2 24.3 47.4 23.4 59.7-1.5 7.9-16.1 1.1-36.1-14.9-43.9-6.6-3.3-19.1-4.3-25.8-2.1z"/></svg>