<?xml version="1.0" standalone="no"?>
<!DOCTYPE svg PUBLIC "-//W3C//DTD SVG 20010904//EN"
 "http://www.w3.org/TR/2001/REC-SVG-20010904/DTD/svg10.dtd">
<svg version="1.0" xmlns="http://www.w3.org/2000/svg"
 width="1024.000000pt" height="1024.000000pt" viewBox="0 0 1024.000000 1024.000000"
 preserveAspectRatio="xMidYMid meet">

<g transform="translate(0.000000,1024.000000) scale(0.100000,-0.100000)"
fill="#000000" stroke="none">
<path d="M5030 8604 c-323 -27 -497 -53 -698 -103 -449 -113 -954 -346 -1298
-601 -561 -415 -998 -1009 -1223 -1664 -165 -477 -225 -955 -185 -1471 28
-367 118 -735 266 -1090 91 -220 182 -370 277 -457 35 -32 51 -55 51 -72 0
-38 39 -154 77 -231 119 -237 331 -413 588 -487 71 -20 100 -23 260 -22 166 0
187 3 268 27 97 30 218 88 288 139 68 48 139 117 934 902 888 877 1190 1173
1280 1259 l71 66 49 -15 c369 -114 806 -67 1100 119 395 249 620 634 642 1098
12 236 -51 514 -168 752 -24 48 -24 49 -30 20 -4 -15 -34 -150 -67 -299 -113
-504 -139 -590 -214 -707 -128 -199 -335 -351 -555 -408 -104 -27 -268 -35
-385 -20 -390 52 -709 340 -809 728 -33 130 -42 242 -29 359 34 323 190 577
465 759 44 29 172 104 285 165 113 62 227 125 254 140 l49 28 -69 7 c-203 22
-460 -29 -675 -134 -133 -66 -225 -130 -335 -234 -211 -200 -339 -435 -391
-717 -22 -122 -21 -330 2 -465 30 -182 118 -411 201 -528 19 -26 34 -49 34
-52 0 -2 -20 -2 -43 1 l-44 6 -199 -194 c-109 -107 -395 -380 -634 -608 -239
-227 -487 -463 -550 -524 -64 -61 -168 -162 -232 -223 l-117 -113 34 -57 c73
-123 102 -280 76 -415 -29 -151 -144 -307 -276 -375 -214 -111 -468 -72 -635
96 -109 110 -160 235 -160 392 0 149 45 260 152 374 116 125 237 171 418 161
58 -3 115 -7 126 -8 24 -3 100 67 734 677 201 193 469 450 595 570 127 121
294 283 373 360 l143 140 -20 47 c-120 281 -121 742 -2 1008 19 42 19 46 3 64
-25 28 -93 76 -108 76 -19 0 -88 -150 -119 -256 -43 -149 -57 -276 -53 -473 3
-118 11 -207 23 -269 l19 -94 -84 -81 c-47 -45 -148 -142 -225 -217 -78 -74
-273 -263 -435 -420 -513 -496 -853 -825 -907 -874 l-52 -48 -211 -1 c-166 -2
-207 1 -194 10 9 7 67 61 128 120 61 60 390 378 731 708 341 329 694 672 785
761 l164 163 1 198 c3 302 51 511 180 778 143 295 357 551 620 740 154 111
391 219 594 270 174 44 453 57 633 30 211 -32 525 -164 717 -302 115 -83 289
-248 377 -357 200 -248 337 -533 407 -845 18 -83 21 -127 22 -336 0 -268 -10
-338 -82 -560 -189 -587 -706 -1026 -1319 -1121 -81 -12 -169 -16 -342 -15
-256 1 -289 -3 -398 -55 -69 -32 -113 -74 -1064 -1021 -546 -544 -1013 -1003
-1039 -1021 -328 -237 -904 -228 -1281 20 -34 23 -20 5 60 -74 121 -120 248
-209 393 -278 199 -95 342 -130 531 -130 115 0 129 -2 188 -28 181 -81 464
-169 700 -216 743 -150 1482 -71 2168 231 117 52 158 72 320 161 324 177 637
429 894 722 456 519 772 1230 871 1960 22 166 30 502 16 710 -29 422 -146 878
-325 1264 -24 52 -49 118 -55 146 -48 222 -226 545 -434 785 -307 355 -730
626 -1132 725 -49 12 -143 44 -207 71 -302 127 -649 216 -989 254 -138 15
-456 26 -539 19z m408 -481 l34 -6 -79 -41 c-87 -47 -192 -120 -298 -206 -70
-57 -70 -58 -155 -65 -103 -8 -334 -48 -450 -76 -178 -45 -393 -125 -569 -214
-290 -145 -481 -283 -720 -518 -404 -398 -644 -853 -759 -1442 -36 -181 -45
-309 -39 -572 5 -251 15 -340 58 -526 l21 -87 -65 -70 c-36 -39 -89 -106 -118
-150 -29 -43 -54 -78 -55 -77 -10 12 -87 265 -103 340 -145 668 -57 1374 249
2002 155 319 357 594 626 855 156 151 258 234 424 345 422 282 911 457 1410
504 63 6 133 13 155 15 53 5 391 -3 433 -11z m2820 -3225 c-21 -472 -186
-1023 -424 -1420 -188 -314 -360 -525 -597 -734 -225 -198 -461 -357 -702
-474 -579 -279 -1184 -372 -1836 -280 -127 18 -371 72 -437 97 -20 8 -11 19
117 135 l139 127 128 -24 c196 -36 371 -48 603 -42 325 9 598 63 916 182 684
255 1270 813 1545 1471 74 177 156 449 184 612 l14 83 86 87 c95 95 184 215
231 308 39 78 42 65 33 -128z"/>
<path d="M6565 7308 c-447 -292 -507 -336 -591 -441 -68 -86 -107 -161 -136
-264 -19 -65 -23 -102 -22 -223 0 -132 3 -152 28 -224 81 -234 235 -385 466
-457 63 -20 96 -24 200 -23 230 1 396 74 546 237 95 104 127 168 210 427 42
129 86 268 100 308 17 55 20 73 10 69 -15 -6 -262 -183 -486 -347 -88 -65
-144 -100 -160 -99 -14 0 -79 10 -145 22 l-119 22 -78 130 c-43 72 -81 139
-84 150 -3 13 19 70 61 155 87 175 288 610 282 610 -1 0 -38 -24 -82 -52z"/>
<path d="M2995 3697 c-97 -32 -171 -103 -206 -197 -31 -82 -24 -205 16 -278
132 -243 474 -234 597 15 79 161 11 361 -149 439 -66 33 -191 43 -258 21z"/>
</g>
</svg>
